<svg id="Layer_1" data-name="Layer 1" xmlns="http://www.w3.org/2000/svg" viewBox="0 0 258.27 258.28"><defs><style>.cls-1{fill:none;stroke:#1a1a1a;stroke-linecap:round;stroke-linejoin:round;stroke-width:5px;}</style></defs><line class="cls-1" x1="58.94" y1="193.21" x2="55.85" y2="196.3"/><line class="cls-1" x1="65.08" y1="199.34" x2="61.98" y2="202.43"/><polyline class="cls-1" points="58.39 206.03 40.16 224.25 34.03 218.12 52.26 199.9"/><rect class="cls-1" x="525.45" y="961.83" width="35.67" height="13.56" transform="translate(-1044.59 -66.95) rotate(-45)"/><rect class="cls-1" x="525.16" y="976.73" width="6.47" height="13.56" transform="translate(-1059.49 -73.11) rotate(-45)"/><polyline class="cls-1" points="38.83 222.92 32.3 216.39 30.52 214.61 17.58 227.54 19.36 229.33"/><rect class="cls-1" x="573.39" y="929.19" width="5.09" height="13.56" transform="translate(-1011.95 -53.43) rotate(-45)"/><polygon class="cls-1" points="59.03 186.1 60.81 187.88 57.22 191.48 66.81 201.07 70.4 197.47 72.19 199.25 74.44 197 61.29 183.84 59.03 186.1"/><path class="cls-1" d="M765.31,738.89h0L582.83,921.37l7.69,7.7L773,746.59h0a5.45,5.45,0,0,0,0-7.68h0A5.42,5.42,0,0,0,765.31,738.89Z" transform="translate(-518.81 -734.8)"/><line class="cls-1" x1="34.97" y1="214.72" x2="43.56" y2="223.31"/><line class="cls-1" x1="39.66" y1="210.04" x2="48.24" y2="218.63"/><line class="cls-1" x1="44.34" y1="205.36" x2="52.93" y2="213.95"/><polyline class="cls-1" points="12.36 4.66 12.36 4.67 129.14 121.45"/><line class="cls-1" x1="191.14" y1="183.45" x2="136.84" y2="129.15"/><line class="cls-1" x1="188.05" y1="195.75" x2="129.14" y2="136.84"/><polyline class="cls-1" points="121.45 129.15 4.66 12.36 4.67 12.35"/><path class="cls-1" d="M531.16,739.47h0a5.44,5.44,0,0,0-7.69,0h0a5.45,5.45,0,0,0,0,7.68" transform="translate(-518.81 -734.8)"/><polyline class="cls-1" points="207.65 198.74 207.66 198.74 209.12 197.27 211.55 199.7 210.08 201.16 208.96 202.28 208.96 202.28 208.42 202.82"/><polyline class="cls-1" points="205.23 196.32 206.7 194.85 204.27 192.42 202.8 193.89"/><polyline class="cls-1" points="245.81 253.18 247.84 255.21 255.2 247.85 253.17 245.82"/><polyline class="cls-1" points="224.46 231.83 214.57 221.93 199.51 206.88"/><line class="cls-1" x1="209.3" y1="201.95" x2="231.82" y2="224.47"/><rect class="cls-1" x="750.85" y="958.53" width="13.56" height="30.19" transform="translate(-985.37 86.08) rotate(-45)"/><polyline class="cls-1" points="199.51 206.88 214.57 221.93 221.92 214.58 209.29 201.95"/><rect class="cls-1" x="734.55" y="956.25" width="4.42" height="14" transform="translate(-984.14 68.31) rotate(-45)"/><polygon class="cls-1" points="207.99 198.41 207.99 198.41 210.41 200.83 208.21 203.03 203.32 203.08 198.4 208 187.67 197.27 189.59 189.6 191.51 181.93 207.99 198.41"/><line class="cls-1" x1="145.67" y1="129.15" x2="161.51" y2="129.15"/><line class="cls-1" x1="171.69" y1="129.14" x2="183.52" y2="129.14"/><line class="cls-1" x1="191.69" y1="129.14" x2="197.61" y2="129.14"/><line class="cls-1" x1="145.67" y1="129.15" x2="160.26" y2="122.99"/><line class="cls-1" x1="169.63" y1="119.01" x2="180.53" y2="114.4"/><line class="cls-1" x1="188.05" y1="111.22" x2="193.5" y2="108.92"/><line class="cls-1" x1="145.72" y1="129.14" x2="160.31" y2="135.3"/><line class="cls-1" x1="169.68" y1="139.28" x2="180.58" y2="143.89"/><line class="cls-1" x1="188.1" y1="147.07" x2="193.55" y2="149.37"/><line class="cls-1" x1="112.6" y1="129.14" x2="96.77" y2="129.14"/><line class="cls-1" x1="86.58" y1="129.15" x2="74.75" y2="129.15"/><line class="cls-1" x1="66.58" y1="129.15" x2="60.67" y2="129.15"/><line class="cls-1" x1="112.6" y1="129.14" x2="98.02" y2="135.3"/><line class="cls-1" x1="88.64" y1="139.28" x2="77.74" y2="143.89"/><line class="cls-1" x1="70.22" y1="147.07" x2="64.77" y2="149.37"/><line class="cls-1" x1="112.55" y1="129.15" x2="97.97" y2="122.99"/><line class="cls-1" x1="88.59" y1="119.01" x2="77.69" y2="114.4"/><line class="cls-1" x1="70.17" y1="111.22" x2="64.72" y2="108.92"/><line class="cls-1" x1="129.09" y1="112.52" x2="124.49" y2="101.62"/><line class="cls-1" x1="129.14" y1="112.91" x2="129.14" y2="97.07"/><line class="cls-1" x1="129.13" y1="86.89" x2="129.13" y2="79.37"/><line class="cls-1" x1="129.13" y1="112.82" x2="133.74" y2="101.92"/><line class="cls-1" x1="136.92" y1="94.4" x2="139.22" y2="88.95"/><line class="cls-1" x1="121.3" y1="94.4" x2="119" y2="88.95"/><line class="cls-1" x1="129.14" y1="145.38" x2="129.14" y2="161.21"/><line class="cls-1" x1="129.13" y1="171.4" x2="129.13" y2="178.91"/><line class="cls-1" x1="129.13" y1="145.46" x2="133.74" y2="156.36"/><line class="cls-1" x1="136.92" y1="163.89" x2="139.22" y2="169.34"/><line class="cls-1" x1="129.09" y1="145.46" x2="124.49" y2="156.36"/><line class="cls-1" x1="121.3" y1="163.89" x2="119" y2="169.34"/></svg>