<svg id="Layer_1" data-name="Layer 1" xmlns="http://www.w3.org/2000/svg" viewBox="0 0 256.27 256.28"><defs><style>.cls-1{fill:none;stroke:#1a1a1a;stroke-linecap:round;stroke-linejoin:round;stroke-width:3px;}</style></defs><line class="cls-1" x1="57.94" y1="192.21" x2="54.85" y2="195.3"/><line class="cls-1" x1="64.08" y1="198.34" x2="60.98" y2="201.43"/><polyline class="cls-1" points="57.39 205.03 39.16 223.25 33.03 217.12 51.26 198.9"/><rect class="cls-1" x="525.45" y="961.83" width="35.67" height="13.56" transform="translate(-1045.59 -67.95) rotate(-45)"/><rect class="cls-1" x="525.16" y="976.73" width="6.47" height="13.56" transform="translate(-1060.49 -74.11) rotate(-45)"/><polyline class="cls-1" points="37.83 221.92 31.3 215.39 29.52 213.61 16.58 226.54 18.36 228.33"/><rect class="cls-1" x="573.39" y="929.19" width="5.09" height="13.56" transform="translate(-1012.95 -54.43) rotate(-45)"/><polygon class="cls-1" points="58.03 185.1 59.81 186.88 56.22 190.48 65.81 200.07 69.4 196.47 71.19 198.25 73.44 196 60.29 182.84 58.03 185.1"/><path class="cls-1" d="M765.31,738.89h0L582.83,921.37l7.69,7.7L773,746.59h0a5.45,5.45,0,0,0,0-7.68h0A5.42,5.42,0,0,0,765.31,738.89Z" transform="translate(-519.81 -735.8)"/><line class="cls-1" x1="33.97" y1="213.72" x2="42.56" y2="222.31"/><line class="cls-1" x1="36.31" y1="211.38" x2="44.9" y2="219.97"/><line class="cls-1" x1="38.66" y1="209.04" x2="47.24" y2="217.63"/><line class="cls-1" x1="41" y1="206.7" x2="49.58" y2="215.29"/><line class="cls-1" x1="43.34" y1="204.36" x2="51.93" y2="212.95"/><polyline class="cls-1" points="11.36 3.66 11.36 3.67 128.14 120.45"/><line class="cls-1" x1="190.14" y1="182.45" x2="135.84" y2="128.15"/><line class="cls-1" x1="187.05" y1="194.75" x2="128.14" y2="135.84"/><polyline class="cls-1" points="120.45 128.15 3.66 11.36 3.67 11.35"/><path class="cls-1" d="M531.16,739.47h0a5.44,5.44,0,0,0-7.69,0h0a5.45,5.45,0,0,0,0,7.68" transform="translate(-519.81 -735.8)"/><polyline class="cls-1" points="206.65 197.74 206.66 197.74 208.12 196.27 210.55 198.7 209.08 200.16 207.96 201.28 207.96 201.28 207.42 201.82"/><polyline class="cls-1" points="204.23 195.32 205.7 193.85 203.27 191.42 201.8 192.89"/><polyline class="cls-1" points="244.81 252.18 246.84 254.21 254.2 246.85 252.17 244.82"/><polyline class="cls-1" points="223.46 230.83 213.57 220.93 198.51 205.88"/><line class="cls-1" x1="208.3" y1="200.95" x2="230.82" y2="223.47"/><rect class="cls-1" x="750.85" y="958.53" width="13.56" height="30.19" transform="translate(-986.37 85.08) rotate(-45)"/><polyline class="cls-1" points="198.51 205.88 213.57 220.93 220.92 213.58 208.29 200.95"/><rect class="cls-1" x="734.55" y="956.25" width="4.42" height="14" transform="translate(-985.14 67.31) rotate(-45)"/><polygon class="cls-1" points="206.99 197.41 206.99 197.41 209.41 199.83 207.21 202.03 202.32 202.08 197.4 207 186.67 196.27 188.59 188.6 190.51 180.93 206.99 197.41"/><line class="cls-1" x1="144.67" y1="128.15" x2="160.51" y2="128.15"/><line class="cls-1" x1="170.69" y1="128.14" x2="182.52" y2="128.14"/><line class="cls-1" x1="190.69" y1="128.14" x2="196.61" y2="128.14"/><line class="cls-1" x1="144.67" y1="128.15" x2="159.26" y2="121.99"/><line class="cls-1" x1="168.63" y1="118.01" x2="179.53" y2="113.4"/><line class="cls-1" x1="187.05" y1="110.22" x2="192.5" y2="107.92"/><line class="cls-1" x1="144.72" y1="128.14" x2="159.31" y2="134.3"/><line class="cls-1" x1="168.68" y1="138.28" x2="179.58" y2="142.89"/><line class="cls-1" x1="187.1" y1="146.07" x2="192.55" y2="148.37"/><line class="cls-1" x1="111.6" y1="128.14" x2="95.77" y2="128.14"/><line class="cls-1" x1="85.58" y1="128.15" x2="73.75" y2="128.15"/><line class="cls-1" x1="65.58" y1="128.15" x2="59.67" y2="128.15"/><line class="cls-1" x1="111.6" y1="128.14" x2="97.02" y2="134.3"/><line class="cls-1" x1="87.64" y1="138.28" x2="76.74" y2="142.89"/><line class="cls-1" x1="69.22" y1="146.07" x2="63.77" y2="148.37"/><line class="cls-1" x1="111.55" y1="128.15" x2="96.97" y2="121.99"/><line class="cls-1" x1="87.59" y1="118.01" x2="76.69" y2="113.4"/><line class="cls-1" x1="69.17" y1="110.22" x2="63.72" y2="107.92"/><line class="cls-1" x1="128.09" y1="111.52" x2="123.49" y2="100.62"/><line class="cls-1" x1="128.14" y1="111.91" x2="128.14" y2="96.07"/><line class="cls-1" x1="128.13" y1="85.89" x2="128.13" y2="78.37"/><line class="cls-1" x1="128.13" y1="111.82" x2="132.74" y2="100.92"/><line class="cls-1" x1="135.92" y1="93.4" x2="138.22" y2="87.95"/><line class="cls-1" x1="120.3" y1="93.4" x2="118" y2="87.95"/><line class="cls-1" x1="128.14" y1="144.38" x2="128.14" y2="160.21"/><line class="cls-1" x1="128.13" y1="170.4" x2="128.13" y2="177.91"/><line class="cls-1" x1="128.13" y1="144.46" x2="132.74" y2="155.36"/><line class="cls-1" x1="135.92" y1="162.89" x2="138.22" y2="168.34"/><line class="cls-1" x1="128.09" y1="144.46" x2="123.49" y2="155.36"/><line class="cls-1" x1="120.3" y1="162.89" x2="118" y2="168.34"/></svg>