<?xml version="1.0" encoding="iso-8859-1"?>
<!-- Generator: Adobe Illustrator 17.0.0, SVG Export Plug-In . SVG Version: 6.00 Build 0)  -->
<!DOCTYPE svg PUBLIC "-//W3C//DTD SVG 1.1//EN" "http://www.w3.org/Graphics/SVG/1.1/DTD/svg11.dtd">
<svg version="1.1" id="_x35_7_x5F_satellite_x5F_transmitter"
	 xmlns="http://www.w3.org/2000/svg" xmlns:xlink="http://www.w3.org/1999/xlink" x="0px" y="0px" width="64px" height="64px"
	 viewBox="0 0 64 64" style="enable-background:new 0 0 64 64;" xml:space="preserve">
<g>
	<path style="fill:#FFF;stroke:#222829;stroke-width:2;stroke-miterlimit:10;" d="M11.277,3.723c3-3,18,10,22,14s17,19,14,22
		s-18-10-22-14S8.277,6.723,11.277,3.723z"/>
	<path style="fill:#FFF;stroke:#222829;stroke-width:2;stroke-miterlimit:10;" d="M32,37c0,0-3-2-9-8s-9-10-9-10"/>
	<line style="fill:#FFF;stroke:#222829;stroke-width:2;stroke-miterlimit:10;" x1="32" y1="27" x2="45.639" y2="5.361"/>
	<line style="fill:#FFF;stroke:#222829;stroke-width:2;stroke-miterlimit:10;" x1="24" y1="19" x2="45.639" y2="5.361"/>
	<path style="fill:#FFF;stroke:#222829;stroke-width:2;stroke-miterlimit:10;" d="M9,24.245C8.291,21.464,7.992,18.642,8,16
		c0.018-5.629,1.436-10.436,3.277-12.278"/>
	<path style="fill:#FFF;stroke:#222829;stroke-width:2;stroke-miterlimit:10;" d="M47.277,39.723C45.436,41.564,40.628,42.981,35,43
		c-2.564,0.008-5.298-0.274-8-0.938"/>
	<polygon style="fill:#FFF;stroke:#222829;stroke-width:2;stroke-miterlimit:10;" points="47,6 45,4 45,3 47,1 48,1 50,3 50,4 48,6 
			"/>
	<polyline style="fill:#FFF;stroke:#222829;stroke-width:2;stroke-miterlimit:10;" points="23,63 23,35 16,28 5,28 5,40 11,46 	"/>
	<line style="fill:#FFF;stroke:#222829;stroke-width:2;stroke-miterlimit:10;" x1="5" y1="36" x2="23" y2="36"/>
	<polyline style="fill:#FFF;stroke:#222829;stroke-width:2;stroke-miterlimit:10;" points="38,63 1,63 1,53 35,53 35,59 	"/>
	<line style="fill:#FFF;stroke:#222829;stroke-width:2;stroke-miterlimit:10;" x1="64" y1="63" x2="40" y2="63"/>
	<polyline style="fill:#FFF;stroke:#222829;stroke-width:2;stroke-miterlimit:10;" points="43,63 43,59 18,59 	"/>
	<line style="fill:#FFF;stroke:#222829;stroke-width:2;stroke-miterlimit:10;" x1="15" y1="39" x2="15" y2="53"/>
	<line style="fill:#FFF;stroke:#222829;stroke-width:2;stroke-miterlimit:10;" x1="11" y1="36" x2="11" y2="53"/>
	<line style="fill:#FFF;stroke:#222829;stroke-width:2;stroke-miterlimit:10;" x1="16" y1="59" x2="14" y2="59"/>
	<line style="fill:#FFF;stroke:#222829;stroke-width:2;stroke-miterlimit:10;" x1="12" y1="59" x2="10" y2="59"/>
	<line style="fill:#FFF;stroke:#222829;stroke-width:2;stroke-miterlimit:10;" x1="8" y1="59" x2="6" y2="59"/>
	<line style="fill:#FFF;stroke:#222829;stroke-width:2;stroke-miterlimit:10;" x1="8" y1="32" x2="10" y2="32"/>
	<line style="fill:#FFF;stroke:#222829;stroke-width:2;stroke-miterlimit:10;" x1="59" y1="63" x2="59" y2="52"/>
	<circle style="fill:#FFF;stroke:#222829;stroke-width:2;stroke-miterlimit:10;" cx="59" cy="48" r="4"/>
	<line style="fill:#FFF;stroke:#222829;stroke-width:2;stroke-miterlimit:10;" x1="52" y1="63" x2="52" y2="59"/>
	<circle style="fill:#FFF;stroke:#222829;stroke-width:2;stroke-miterlimit:10;" cx="52" cy="56" r="3"/>
	<line style="fill:#FFF;stroke:#222829;stroke-width:2;stroke-miterlimit:10;" x1="48" y1="23" x2="50" y2="23"/>
	<line style="fill:#FFF;stroke:#222829;stroke-width:2;stroke-miterlimit:10;" x1="56" y1="35" x2="58" y2="35"/>
	<line style="fill:#FFF;stroke:#222829;stroke-width:2;stroke-miterlimit:10;" x1="62" y1="25" x2="64" y2="25"/>
	<line style="fill:#FFF;stroke:#222829;stroke-width:2;stroke-miterlimit:10;" x1="42" y1="49" x2="44" y2="49"/>
	<line style="fill:#FFF;stroke:#222829;stroke-width:2;stroke-miterlimit:10;" x1="28" y1="3" x2="30" y2="3"/>
	<circle style="fill:#FFF;stroke:#222829;stroke-width:2;stroke-miterlimit:10;" cx="55" cy="14" r="1"/>
</g>
</svg>
